<?xml version="1.0" encoding="UTF-8" standalone="no"?>
<svg
   width="10%"
   height="10%"
   version="1.1"
   viewBox="0 0 700 700"
   id="svg172"
   sodipodi:docname="panier-icon.svg"
   inkscape:version="1.2.2 (732a01da63, 2022-12-09)"
   xmlns:inkscape="http://www.inkscape.org/namespaces/inkscape"
   xmlns:sodipodi="http://sodipodi.sourceforge.net/DTD/sodipodi-0.dtd"
   xmlns="http://www.w3.org/2000/svg"
   xmlns:svg="http://www.w3.org/2000/svg">
  <sodipodi:namedview
     id="namedview174"
     pagecolor="#ffffff"
     bordercolor="#000000"
     borderopacity="0.25"
     inkscape:showpageshadow="2"
     inkscape:pageopacity="0.0"
     inkscape:pagecheckerboard="0"
     inkscape:deskcolor="#d1d1d1"
     inkscape:document-units="pt"
     showgrid="false"
     inkscape:zoom="0.86142857"
     inkscape:cx="467.2471"
     inkscape:cy="467.2471"
     inkscape:window-width="1920"
     inkscape:window-height="991"
     inkscape:window-x="-9"
     inkscape:window-y="-9"
     inkscape:window-maximized="1"
     inkscape:current-layer="g170" />
  <defs
     id="defs62">
    <symbol
       id="t"
       overflow="visible">
      <path
         d="m3.6562-0.21875c-0.1875 0.09375-0.38672 0.16797-0.59375 0.21875-0.19922 0.050781-0.40625 0.078125-0.625 0.078125-0.66797 0-1.1992-0.17969-1.5938-0.54688-0.38672-0.375-0.57812-0.87891-0.57812-1.5156 0-0.64453 0.19141-1.1484 0.57812-1.5156 0.39453-0.375 0.92578-0.5625 1.5938-0.5625 0.21875 0 0.42578 0.027344 0.625 0.078125 0.20703 0.054687 0.40625 0.125 0.59375 0.21875v0.82812c-0.1875-0.125-0.375-0.21875-0.5625-0.28125-0.17969-0.0625-0.37109-0.09375-0.57812-0.09375-0.36719 0-0.65625 0.12109-0.875 0.35938-0.21094 0.23047-0.3125 0.55469-0.3125 0.96875 0 0.40625 0.10156 0.73047 0.3125 0.96875 0.21875 0.23047 0.50781 0.34375 0.875 0.34375 0.20703 0 0.39844-0.023437 0.57812-0.078125 0.1875-0.0625 0.375-0.16016 0.5625-0.29688z"
         id="path2" />
    </symbol>
    <symbol
       id="b"
       overflow="visible">
      <path
         d="m2.6875-2.1719c-0.085938-0.039063-0.16797-0.070313-0.25-0.09375-0.085938-0.019531-0.16797-0.03125-0.25-0.03125-0.25 0-0.44531 0.085937-0.57812 0.25-0.125 0.15625-0.1875 0.38281-0.1875 0.67188v1.375h-0.96875v-2.9844h0.96875v0.48438c0.11328-0.19531 0.25-0.33594 0.40625-0.42188 0.16406-0.09375 0.35938-0.14062 0.57812-0.14062h0.10938c0.039063 0 0.09375 0.007812 0.15625 0.015625z"
         id="path5" />
    </symbol>
    <symbol
       id="a"
       overflow="visible">
      <path
         d="m3.4375-1.5v0.26562h-2.2344c0.03125 0.23047 0.11328 0.40234 0.25 0.51562 0.13281 0.10547 0.32812 0.15625 0.57812 0.15625 0.20703 0 0.41406-0.023438 0.625-0.078125 0.20703-0.0625 0.42188-0.15625 0.64062-0.28125v0.73438c-0.21875 0.09375-0.44531 0.16406-0.67188 0.20312-0.23047 0.039062-0.45312 0.0625-0.67188 0.0625-0.54297 0-0.96484-0.13281-1.2656-0.40625-0.30469-0.28125-0.45312-0.67188-0.45312-1.1719 0-0.47656 0.14453-0.85938 0.4375-1.1406 0.30078-0.28125 0.70703-0.42188 1.2188-0.42188 0.46875 0 0.84375 0.14062 1.125 0.42188s0.42188 0.66406 0.42188 1.1406zm-0.96875-0.32812c0-0.17578-0.058594-0.31641-0.17188-0.42188-0.10547-0.11328-0.24219-0.17188-0.40625-0.17188-0.1875 0-0.33984 0.054687-0.45312 0.15625-0.11719 0.10547-0.1875 0.25-0.21875 0.4375z"
         id="path8" />
    </symbol>
    <symbol
       id="f"
       overflow="visible">
      <path
         d="m1.7969-1.3438c-0.19922 0-0.35156 0.039062-0.45312 0.10938-0.09375 0.0625-0.14062 0.16406-0.14062 0.29688 0 0.11719 0.035156 0.21094 0.10938 0.28125 0.082031 0.0625 0.19531 0.09375 0.34375 0.09375 0.17578 0 0.32812-0.0625 0.45312-0.1875s0.1875-0.28516 0.1875-0.48438v-0.10938zm1.4688-0.35938v1.7031h-0.96875v-0.4375c-0.125 0.17969-0.27344 0.30859-0.4375 0.39062-0.15625 0.082031-0.35156 0.125-0.57812 0.125-0.3125 0-0.57031-0.085938-0.76562-0.26562-0.1875-0.1875-0.28125-0.42188-0.28125-0.70312 0-0.35156 0.11719-0.61328 0.35938-0.78125 0.23828-0.16406 0.61719-0.25 1.1406-0.25h0.5625v-0.0625c0-0.15625-0.0625-0.26562-0.1875-0.32812-0.11719-0.070312-0.29688-0.10938-0.54688-0.10938-0.21094 0-0.40234 0.023437-0.57812 0.0625-0.17969 0.042969-0.33984 0.10156-0.48438 0.17188v-0.71875c0.19531-0.050781 0.39844-0.085938 0.60938-0.10938 0.20703-0.03125 0.41406-0.046875 0.625-0.046875 0.53906 0 0.92969 0.10938 1.1719 0.32812 0.23828 0.21094 0.35938 0.55469 0.35938 1.0312z"
         id="path11" />
    </symbol>
    <symbol
       id="d"
       overflow="visible">
      <path
         d="m1.5-3.8438v0.85938h0.98438v0.67188h-0.98438v1.2812c0 0.13672 0.023438 0.23047 0.078125 0.28125 0.0625 0.042969 0.17578 0.0625 0.34375 0.0625h0.48438v0.6875h-0.8125c-0.38672 0-0.65625-0.078125-0.8125-0.23438s-0.23438-0.42188-0.23438-0.79688v-1.2812h-0.46875v-0.67188h0.46875v-0.85938z"
         id="path14" />
    </symbol>
    <symbol
       id="k"
       overflow="visible">
      <path
         d="m2.5-2.5469v-1.6094h0.95312v4.1562h-0.95312v-0.4375c-0.13672 0.17969-0.28125 0.30859-0.4375 0.39062-0.15625 0.082031-0.33984 0.125-0.54688 0.125-0.375 0-0.68359-0.14453-0.92188-0.4375-0.23047-0.28906-0.34375-0.67188-0.34375-1.1406 0-0.45703 0.11328-0.83203 0.34375-1.125 0.23828-0.28906 0.54688-0.4375 0.92188-0.4375 0.19531 0 0.375 0.042969 0.53125 0.125 0.16406 0.085938 0.31641 0.21484 0.45312 0.39062zm-0.64062 1.9375c0.20703 0 0.36328-0.070313 0.46875-0.21875 0.11328-0.15625 0.17188-0.37891 0.17188-0.67188 0-0.28125-0.058594-0.49219-0.17188-0.64062-0.10547-0.15625-0.26172-0.23438-0.46875-0.23438-0.19922 0-0.35547 0.078125-0.46875 0.23438-0.10547 0.14844-0.15625 0.35938-0.15625 0.64062 0 0.29297 0.050781 0.51562 0.15625 0.67188 0.11328 0.14844 0.26953 0.21875 0.46875 0.21875z"
         id="path17" />
    </symbol>
    <symbol
       id="j"
       overflow="visible">
      <path
         d="m2.0469-0.60938c0.20703 0 0.36328-0.070313 0.46875-0.21875 0.11328-0.15625 0.17188-0.37891 0.17188-0.67188 0-0.28125-0.058594-0.49219-0.17188-0.64062-0.10547-0.15625-0.26172-0.23438-0.46875-0.23438-0.19922 0-0.35547 0.078125-0.46875 0.23438-0.10547 0.14844-0.15625 0.35938-0.15625 0.64062 0 0.29297 0.050781 0.51562 0.15625 0.67188 0.11328 0.14844 0.26953 0.21875 0.46875 0.21875zm-0.625-1.9375c0.125-0.17578 0.26562-0.30469 0.42188-0.39062 0.16406-0.082031 0.35156-0.125 0.5625-0.125 0.36328 0 0.66406 0.14844 0.90625 0.4375 0.23828 0.29297 0.35938 0.66797 0.35938 1.125 0 0.46875-0.12109 0.85156-0.35938 1.1406-0.24219 0.29297-0.54297 0.4375-0.90625 0.4375-0.21094 0-0.39844-0.042969-0.5625-0.125-0.15625-0.082031-0.29688-0.21094-0.42188-0.39062v0.4375h-0.96875v-4.1562h0.96875z"
         id="path20" />
    </symbol>
    <symbol
       id="i"
       overflow="visible">
      <path
         d="m0.0625-2.9844h0.95312l0.8125 2.0156 0.6875-2.0156h0.95312l-1.2656 3.2656c-0.125 0.33203-0.27344 0.56641-0.4375 0.70312-0.16797 0.13281-0.39062 0.20312-0.67188 0.20312h-0.54688v-0.64062h0.29688c0.16406 0 0.28516-0.027344 0.35938-0.078125 0.070313-0.054688 0.12891-0.14062 0.17188-0.26562l0.03125-0.09375z"
         id="path23" />
    </symbol>
    <symbol
       id="e"
       overflow="visible">
      <path
         d="m0.45312-2.9844h0.96875v2.9844h-0.96875zm0-1.1719h0.96875v0.78125h-0.96875z"
         id="path26" />
    </symbol>
    <symbol
       id="h"
       overflow="visible">
      <path
         d="m2.875-2.8906v0.76562c-0.125-0.082031-0.25781-0.14453-0.39062-0.1875-0.13672-0.039062-0.27344-0.0625-0.40625-0.0625-0.27344 0-0.48047 0.078125-0.625 0.23438-0.14844 0.15625-0.21875 0.37109-0.21875 0.64062 0 0.28125 0.070313 0.5 0.21875 0.65625 0.14453 0.15625 0.35156 0.23438 0.625 0.23438 0.14453 0 0.28516-0.019531 0.42188-0.0625 0.13281-0.039063 0.25781-0.10938 0.375-0.20312v0.78125c-0.14844 0.0625-0.29688 0.10156-0.45312 0.125-0.15625 0.03125-0.3125 0.046875-0.46875 0.046875-0.54297 0-0.96484-0.13281-1.2656-0.40625-0.30469-0.28125-0.45312-0.67188-0.45312-1.1719 0-0.48828 0.14844-0.86719 0.45312-1.1406 0.30078-0.28125 0.72266-0.42188 1.2656-0.42188 0.15625 0 0.3125 0.015625 0.46875 0.046875 0.15625 0.023437 0.30469 0.0625 0.45312 0.125z"
         id="path29" />
    </symbol>
    <symbol
       id="c"
       overflow="visible">
      <path
         d="m1.875-2.375c-0.21094 0-0.37109 0.078125-0.48438 0.23438-0.10547 0.14844-0.15625 0.35938-0.15625 0.64062 0 0.29297 0.050781 0.51562 0.15625 0.67188 0.11328 0.14844 0.27344 0.21875 0.48438 0.21875 0.20703 0 0.36719-0.070313 0.48438-0.21875 0.11328-0.15625 0.17188-0.37891 0.17188-0.67188 0-0.28125-0.058594-0.49219-0.17188-0.64062-0.11719-0.15625-0.27734-0.23438-0.48438-0.23438zm0-0.6875c0.51953 0 0.92188 0.14062 1.2031 0.42188 0.28906 0.27344 0.4375 0.65234 0.4375 1.1406 0 0.5-0.14844 0.89062-0.4375 1.1719-0.28125 0.27344-0.68359 0.40625-1.2031 0.40625-0.51172 0-0.91406-0.13281-1.2031-0.40625-0.29297-0.28125-0.4375-0.67188-0.4375-1.1719 0-0.48828 0.14453-0.86719 0.4375-1.1406 0.28906-0.28125 0.69141-0.42188 1.2031-0.42188z"
         id="path32" />
    </symbol>
    <symbol
       id="g"
       overflow="visible">
      <path
         d="m3.4688-1.8281v1.8281h-0.96875v-1.3906c0-0.25781-0.007812-0.4375-0.015625-0.53125-0.011719-0.10156-0.03125-0.17578-0.0625-0.21875-0.03125-0.0625-0.085937-0.10938-0.15625-0.14062-0.0625-0.039062-0.13281-0.0625-0.20312-0.0625-0.21094 0-0.37109 0.078125-0.48438 0.23438-0.10547 0.15625-0.15625 0.37109-0.15625 0.64062v1.4688h-0.96875v-2.9844h0.96875v0.4375c0.13281-0.17578 0.28516-0.30469 0.45312-0.39062 0.16406-0.082031 0.34375-0.125 0.53125-0.125 0.34375 0 0.60156 0.10938 0.78125 0.32812 0.1875 0.21094 0.28125 0.51172 0.28125 0.90625z"
         id="path35" />
    </symbol>
    <symbol
       id="s"
       overflow="visible">
      <path
         d="m1.2188-1.5312-1.0781-1.4531h1l0.625 0.875 0.60938-0.875h1.0156l-1.0781 1.4531 1.125 1.5312h-1l-0.67188-0.9375-0.67188 0.9375h-1.0156z"
         id="path38" />
    </symbol>
    <symbol
       id="r"
       overflow="visible">
      <path
         d="m2.4219-4.1562v0.625h-0.51562c-0.13672 0-0.23438 0.027344-0.29688 0.078125-0.054687 0.054687-0.078125 0.13672-0.078125 0.25v0.21875h0.82812v0.67188h-0.82812v2.3125h-0.95312v-2.3125h-0.46875v-0.67188h0.46875v-0.21875c0-0.32031 0.085937-0.5625 0.26562-0.71875 0.1875-0.15625 0.47266-0.23438 0.85938-0.23438z"
         id="path41" />
    </symbol>
    <symbol
       id="q"
       overflow="visible">
      <path
         d="m3.2344-2.5c0.11328-0.17578 0.25391-0.3125 0.42188-0.40625 0.16406-0.10156 0.35156-0.15625 0.5625-0.15625 0.33203 0 0.58594 0.10938 0.76562 0.32812 0.1875 0.21094 0.28125 0.51172 0.28125 0.90625v1.8281h-0.96875v-1.5625c0.007813-0.019531 0.015625-0.039062 0.015625-0.0625v-0.10938c0-0.21875-0.03125-0.375-0.09375-0.46875s-0.16406-0.14062-0.29688-0.14062c-0.1875 0-0.33594 0.078125-0.4375 0.23438-0.09375 0.14844-0.14062 0.35938-0.14062 0.64062v1.4688h-0.96875v-1.5625c0-0.33203-0.03125-0.54688-0.09375-0.64062-0.054688-0.09375-0.15234-0.14062-0.29688-0.14062-0.17969 0-0.32031 0.078125-0.42188 0.23438-0.09375 0.14844-0.14062 0.35938-0.14062 0.64062v1.4688h-0.96875v-2.9844h0.96875v0.4375c0.11328-0.17578 0.24219-0.30469 0.39062-0.39062 0.15625-0.082031 0.32812-0.125 0.51562-0.125 0.20703 0 0.39062 0.054688 0.54688 0.15625 0.15625 0.09375 0.27344 0.23047 0.35938 0.40625z"
         id="path44" />
    </symbol>
    <symbol
       id="p"
       overflow="visible">
      <path
         d="m3.4688-1.8281v1.8281h-0.96875v-1.3906c0-0.25781-0.007812-0.4375-0.015625-0.53125-0.011719-0.10156-0.03125-0.17578-0.0625-0.21875-0.03125-0.0625-0.085937-0.10938-0.15625-0.14062-0.0625-0.039062-0.13281-0.0625-0.20312-0.0625-0.21094 0-0.37109 0.078125-0.48438 0.23438-0.10547 0.15625-0.15625 0.37109-0.15625 0.64062v1.4688h-0.96875v-4.1562h0.96875v1.6094c0.13281-0.17578 0.28516-0.30469 0.45312-0.39062 0.16406-0.082031 0.34375-0.125 0.53125-0.125 0.34375 0 0.60156 0.10938 0.78125 0.32812 0.1875 0.21094 0.28125 0.51172 0.28125 0.90625z"
         id="path47" />
    </symbol>
    <symbol
       id="o"
       overflow="visible">
      <path
         d="m0.5-3.9844h1.1562l1.4375 2.7344v-2.7344h0.98438v3.9844h-1.1562l-1.4375-2.7344v2.7344h-0.98438z"
         id="path50" />
    </symbol>
    <symbol
       id="n"
       overflow="visible">
      <path
         d="m0.42188-1.1719v-1.8125h0.96875v0.29688 0.60938 0.48438c0 0.24219 0.003906 0.41797 0.015625 0.53125 0.007812 0.10547 0.03125 0.17969 0.0625 0.21875 0.039062 0.0625 0.09375 0.11719 0.15625 0.15625 0.0625 0.03125 0.13281 0.046875 0.21875 0.046875 0.19531 0 0.35156-0.078125 0.46875-0.23438 0.11328-0.15625 0.17188-0.36719 0.17188-0.64062v-1.4688h0.95312v2.9844h-0.95312v-0.4375c-0.14844 0.17969-0.30469 0.30859-0.46875 0.39062-0.15625 0.082031-0.33594 0.125-0.53125 0.125-0.34375 0-0.60938-0.10156-0.79688-0.3125-0.17969-0.21875-0.26562-0.53125-0.26562-0.9375z"
         id="path53" />
    </symbol>
    <symbol
       id="m"
       overflow="visible">
      <path
         d="m0.5-3.9844h1.7031c0.50781 0 0.89844 0.11719 1.1719 0.34375 0.26953 0.21875 0.40625 0.53906 0.40625 0.95312 0 0.41797-0.13672 0.74219-0.40625 0.96875-0.27344 0.21875-0.66406 0.32812-1.1719 0.32812h-0.67188v1.3906h-1.0312zm1.0312 0.75v1.1094h0.5625c0.19531 0 0.34766-0.046875 0.45312-0.14062 0.11328-0.10156 0.17188-0.24219 0.17188-0.42188 0-0.17578-0.058594-0.3125-0.17188-0.40625-0.10547-0.09375-0.25781-0.14062-0.45312-0.14062z"
         id="path56" />
    </symbol>
    <symbol
       id="l"
       overflow="visible">
      <path
         d="m0.45312-2.9844h0.96875v2.9375c0 0.39453-0.10156 0.69531-0.29688 0.90625-0.1875 0.21875-0.46484 0.32812-0.82812 0.32812h-0.48438v-0.64062h0.17188c0.17578 0 0.29688-0.042969 0.35938-0.125 0.070312-0.074219 0.10938-0.23047 0.10938-0.46875zm0-1.1719h0.96875v0.78125h-0.96875z"
         id="path59" />
    </symbol>
  </defs>
  <g
     id="g170">
    <path
       d="m577.86 130.96c11.52-8.8242 17.914-22.785 17.07-37.273-0.83984-14.488-8.8125-27.613-21.281-35.043-12.469-7.4258-27.805-8.1875-40.949-2.0352-13.141 6.1562-22.375 18.426-24.652 32.758-0.48438 3.0625-2.5508 5.6406-5.4336 6.7773-2.8828 1.1406-6.1523 0.66406-8.5977-1.2422-6.1328-4.8242-13.715-7.4336-21.516-7.4062-9.2812 0.011719-18.176 3.7031-24.738 10.262-6.5586 6.5625-10.25 15.457-10.262 24.738-0.027344 7.9492 2.6797 15.664 7.668 21.848 2.3203 2.9023 2.5586 6.9492 0.59375 10.102-1.9688 3.1523-5.7109 4.7188-9.3359 3.9062-10.09-2.2734-20.672 0.035156-28.898 6.3086-8.2266 6.2695-13.254 15.863-13.734 26.195 18.473 15.191 31.062 36.285 34.191 60.008l24.984-34.355-14.531-28.824c-1.0664-2.0742-1.2578-4.4883-0.53516-6.7031 0.72266-2.2188 2.3008-4.0547 4.3828-5.1055 2.082-1.0469 4.4961-1.2227 6.707-0.48438 2.2109 0.73828 4.0391 2.3281 5.0703 4.418l10.477 20.781 30.156-41.453-12.449-23.844c-2.2383-4.2852-0.58203-9.5703 3.7031-11.809 4.2812-2.2344 9.5703-0.57812 11.805 3.707l8.4297 16.141 37.988-52.227c2.8555-3.875 8.3008-4.7227 12.195-1.8906 3.8906 2.832 4.7695 8.2734 1.9609 12.184l-53.531 73.598h20.203c4.832 0 8.75 3.918 8.75 8.75s-3.918 8.75-8.75 8.75h-32.934l-25.453 35h23.387c4.832 0 8.75 3.918 8.75 8.75s-3.918 8.75-8.75 8.75h-36.113l-25.453 35h96.566c8.707 0 17.105-3.25 23.547-9.1094s10.469-13.91 11.293-22.582c0.82422-8.668-1.6172-17.336-6.8398-24.305-1.9922-2.6484-2.3125-6.1992-0.83203-9.1641 1.4844-2.9688 4.5156-4.8398 7.832-4.8398 10.203-0.003906 19.895-4.457 26.543-12.195 6.6484-7.7383 9.5859-17.992 8.0508-28.078-1.5391-10.086-7.3984-18.996-16.051-24.406-2.4297-1.5195-3.957-4.1367-4.0938-6.9961-0.13672-2.8633 1.1367-5.6133 3.4102-7.3594z"
       id="path64"
       style="fill:#082c00;fill-opacity:1" />
    <path
       d="m105 306.25c0.003906 4.832 3.918 8.7461 8.75 8.75h472.5c4.832 0 8.75-3.918 8.75-8.75s-3.918-8.75-8.75-8.75h-472.5c-4.832 0.003906-8.7461 3.918-8.75 8.75z"
       id="path66"
       style="fill:#661b00;fill-opacity:1" />
    <path
       d="m498.75 367.5h62.586l5.8359-35h-68.422z"
       id="path68"
       style="fill:#a65a27;fill-opacity:1" />
    <path
       d="m551.25 490h-402.5c-4.832 0-8.75 3.918-8.75 8.75s3.918 8.75 8.75 8.75h402.5c4.832 0 8.75-3.918 8.75-8.75s-3.918-8.75-8.75-8.75z"
       id="path70"
       style="fill:#661b00;fill-opacity:1" />
    <path
       d="m358.75 332.5h122.5v35h-122.5z"
       id="path72"
       style="fill:#a65a27;fill-opacity:1" />
    <path
       d="m218.75 437.5h122.5v35h-122.5z"
       id="path74"
       style="fill:#a65a27;fill-opacity:1" />
    <path
       d="m358.75 437.5h122.5v35h-122.5z"
       id="path76"
       style="fill:#a65a27;fill-opacity:1" />
    <path
       d="m288.75 385h122.5v35h-122.5z"
       id="path78"
       style="fill:#a65a27;fill-opacity:1" />
    <path
       d="m218.75 332.5h122.5v35h-122.5z"
       id="path80"
       style="fill:#a65a27;fill-opacity:1" />
    <path
       d="m201.25 472.5v-35h-50.922l5.8359 35z"
       id="path82"
       style="fill:#a65a27;fill-opacity:1" />
    <path
       d="m147.41 420h123.84v-35h-129.67z"
       id="path84"
       style="fill:#a65a27;fill-opacity:1" />
    <path
       d="m543.84 472.5 5.8359-35h-50.922v35z"
       id="path86"
       style="fill:#a65a27;fill-opacity:1" />
    <path
       d="m201.25 332.5h-68.422l5.8359 35h62.586z"
       id="path88"
       style="fill:#a65a27;fill-opacity:1" />
    <path
       d="m411.25 262.5c0-43.418-39.242-78.738-87.477-78.75h-0.050782c-26.426 0.007812-50.898 10.469-67.605 28.797l-5.3125 67.453h158.27c1.4453-5.7227 2.1758-11.598 2.1797-17.5z"
       id="path90"
       style="fill:#eb0000;fill-opacity:1" />
    <path
       d="m178.96 122.5h17.992c6.1641 0.007812 12.293 0.94531 18.18 2.7852l22.184-33.277c0.76172-1.9062 1.1406-3.9453 1.1172-6-0.085938-2.4336-0.85547-5.5625-6.0938-8.1836-5.2383-2.6211-8.2031-1.3594-10.203 0.035156v0.003906c-1.7773 1.3008-3.2578 2.9648-4.3477 4.8828-1.8281 3.6172-5.9062 5.5039-9.8516 4.5508-3.9414-0.94922-6.7109-4.4922-6.6836-8.5469-0.16016-5.043-1.125-10.027-2.8555-14.766-3.9883-10.293-10.27-11.484-14.645-11.484s-10.656 1.1914-14.645 11.484c-1.7344 4.7461-2.6953 9.7422-2.8555 14.793-0.011719 4.0508-2.8047 7.5664-6.7539 8.4922-3.9453 0.92578-8.0078-0.98047-9.8203-4.6055-1.0898-1.8828-2.5586-3.5156-4.3086-4.8008-1.9961-1.3906-4.9648-2.6562-10.203-0.035156-5.4062 2.7031-6.1016 6.0039-6.1016 8.5781 0.035156 1.918 0.41797 3.8164 1.125 5.6016l23.875 35.809c7.832-3.4961 16.316-5.3047 24.895-5.3164z"
       id="path92"
       style="fill:#22b400;fill-opacity:1" />
    <path
       d="m558.42 385h-129.67v35h123.84z"
       id="path94"
       style="fill:#a65a27;fill-opacity:1" />
    <path
       d="m135.73 192.5h39.273c4.832 0 8.75 3.918 8.75 8.75s-3.918 8.75-8.75 8.75h-38l2.5469 35h35.453c4.832 0 8.75 3.918 8.75 8.75s-3.918 8.75-8.75 8.75h-34.184l1.2734 17.5h91.16l7.3125-92.812h0.003906c0.95703-12.164-3.207-24.176-11.488-33.133-8.2812-8.9609-19.93-14.055-32.129-14.055h-17.992c-12.156 0-23.766 5.0547-32.043 13.953-8.2773 8.9023-12.48 20.844-11.598 32.969z"
       id="path96"
       style="fill:#ff6202;fill-opacity:1" />
    <path
       d="m385 131.25c0 16.484-9.1641 30.375-26.578 40.402-22.578-7.1914-46.836-7.2031-69.422-0.03125-13.734-7.918-26.5-20.598-26.5-40.371 0-4.832 3.918-8.75 8.75-8.75s8.75 3.918 8.75 8.75c0 18.879 21.668 28.461 35 32.562v-50.062c0-4.832 3.918-8.75 8.75-8.75s8.75 3.918 8.75 8.75v50.062c13.332-4.1016 35-13.684 35-32.562 0-4.832 3.918-8.75 8.75-8.75s8.75 3.918 8.75 8.75z"
       id="path98"
       style="fill:#22b400;fill-opacity:1" />
  </g>
</svg>
